<?xml version="1.0" encoding="UTF-8"?>
<!--Generator: Apple Native CoreSVG 175.5-->
<!DOCTYPE svg
PUBLIC "-//W3C//DTD SVG 1.1//EN"
       "http://www.w3.org/Graphics/SVG/1.1/DTD/svg11.dtd">
<svg version="1.1" xmlns="http://www.w3.org/2000/svg" xmlns:xlink="http://www.w3.org/1999/xlink" width="14.5113" height="16.4316">
 <g>
  <rect height="16.4316" opacity="0" width="14.5113" x="0" y="0"/>
  <path d="M0.999318 16.4316C1.32334 16.4316 1.59483 16.3117 1.93701 16.1113L13.6022 9.32344C14.2554 8.93877 14.5113 8.66865 14.5113 8.2207C14.5113 7.77275 14.2554 7.50264 13.6022 7.12773L1.93701 0.330079C1.59483 0.132715 1.32334 0.0165039 0.999318 0.0165039C0.385645 0.0165039 0 0.475587 0 1.20713L0 15.2343C0 15.9658 0.385645 16.4316 0.999318 16.4316ZM1.346 15.0205C1.26319 15.0205 1.20899 14.9603 1.20899 14.8428L1.20899 1.59864C1.20899 1.4751 1.26319 1.4209 1.346 1.4209C1.40323 1.4209 1.46045 1.44649 1.52071 1.48789L12.8156 8.04063C12.8917 8.08506 12.9671 8.13857 12.9671 8.2207C12.9671 8.30283 12.8917 8.36309 12.8156 8.40078L1.52071 14.9603C1.46045 14.9949 1.40323 15.0205 1.346 15.0205Z" fill="#007aff"/>
 </g>
</svg>
