<?xml version="1.0" encoding="UTF-8"?>
<!--Generator: Apple Native CoreSVG 175.5-->
<!DOCTYPE svg
PUBLIC "-//W3C//DTD SVG 1.1//EN"
       "http://www.w3.org/Graphics/SVG/1.1/DTD/svg11.dtd">
<svg version="1.1" xmlns="http://www.w3.org/2000/svg" xmlns:xlink="http://www.w3.org/1999/xlink" width="15.551" height="15.5705">
 <g>
  <rect height="15.5705" opacity="0" width="15.551" x="0" y="0"/>
  <path d="M0 13.5751C0 14.8235 0.750684 15.5577 2.00283 15.5577L13.5481 15.5577C14.8101 15.5577 15.551 14.8235 15.551 13.5751L15.551 1.98565C15.551 0.737208 14.8101 0 13.5481 0L2.00283 0C0.750684 0 0 0.737208 0 1.98565ZM1.20899 13.3221L1.20899 2.23867C1.20899 1.59453 1.5878 1.20899 2.2252 1.20899L13.3258 1.20899C13.9699 1.20899 14.345 1.59453 14.345 2.23867L14.345 13.3221C14.345 13.9632 13.9699 14.3518 13.3258 14.3518L2.2252 14.3518C1.5878 14.3518 1.20899 13.9632 1.20899 13.3221Z" fill="#007aff"/>
 </g>
</svg>
